<?xml version="1.0" standalone="no"?><!DOCTYPE svg PUBLIC "-//W3C//DTD SVG 1.1//EN" "http://www.w3.org/Graphics/SVG/1.1/DTD/svg11.dtd"><svg t="1645449209469" class="icon" viewBox="0 0 1024 1024" version="1.1" xmlns="http://www.w3.org/2000/svg" p-id="11587" xmlns:xlink="http://www.w3.org/1999/xlink" width="200" height="200"><defs><style type="text/css"></style></defs><path d="M810.516 830.408c-5.6 0-11.2-2.137-15.475-6.412L198.009 226.953c-8.549-8.549-8.549-22.4 0-30.949 8.549-8.549 22.4-8.549 30.949 0L825.99 793.047c8.549 8.549 8.549 22.4 0 30.949a21.812 21.812 0 0 1-15.474 6.412z" fill="#606266" p-id="11588"></path><path d="M213.484 830.408c-5.6 0-11.2-2.137-15.475-6.412-8.549-8.549-8.549-22.4 0-30.949l597.032-597.043c8.549-8.549 22.4-8.549 30.949 0 8.549 8.549 8.549 22.4 0 30.949L228.958 823.996a21.812 21.812 0 0 1-15.474 6.412z" fill="#606266" p-id="11589"></path></svg>