<?xml version="1.0" standalone="no"?><!DOCTYPE svg PUBLIC "-//W3C//DTD SVG 1.1//EN" "http://www.w3.org/Graphics/SVG/1.1/DTD/svg11.dtd"><svg t="1643527649049" class="icon" viewBox="0 0 1024 1024" version="1.1" xmlns="http://www.w3.org/2000/svg" p-id="1403" xmlns:xlink="http://www.w3.org/1999/xlink" width="200" height="200"><defs><style type="text/css"></style></defs><path d="M884.2 909.6H126.8c-38.6 0-70-31.4-70-70V204.6c0-38.6 31.4-70 70-70h328.6c38.6 0 70 31.4 70 70 0 11-9 20-20 20s-20-9-20-20c0-16.6-13.4-30-30-30H126.8c-16.6 0-30 13.4-30 30v635c0 16.6 13.4 30 30 30h757.4c11 0 20 9 20 20s-8.8 20-20 20z" fill="#262435" p-id="1404"></path><path d="M884.2 909.6c-11 0-20-9-20-20s9-20 20-20c16.6 0 30-13.4 30-30V428.2c0-16.6-13.4-30-30-30H292.6c-16.6 0-30 13.4-30 30v268.6c0 11-9 20-20 20s-20-9-20-20V428.2c0-38.6 31.4-70 70-70h591.6c38.6 0 70 31.4 70 70v411.4c0 38.6-31.4 70-70 70zM734 295h-178.2c-38.6 0-70-31.4-70-70v-10.4c0-11 9-20 20-20s20 9 20 20v10.4c0 16.6 13.4 30 30 30H734c11 0 20 9 20 20s-9 20-20 20z" fill="#262435" p-id="1405"></path><path d="M192.8 909.6h-15.8c-11 0-20-9-20-20s9-20 20-20h15.8c16.6 0 30-13.4 30-30v-168.6c0-11 9-20 20-20s20 9 20 20v168.6c-0.2 38.6-31.4 70-70 70zM818 398.4c-11 0-20-9-20-20v-53.2c0-16.6-13.4-30-30-30h-90.4c-11 0-20-9-20-20s9-20 20-20H768c38.6 0 70 31.4 70 70v53.2c0 11-9 20-20 20z" fill="#262435" p-id="1406"></path><path d="M598.2 764.6c-11 0-20-9-20-20V532.4c0-11 9-20 20-20s20 9 20 20v212.2c0 11-9 20-20 20z" fill="#262435" p-id="1407"></path><path d="M683.8 638c-5.2 0-10.2-2-14.2-5.8L584 546.6c-7.8-7.8-7.8-20.4 0-28.2 7.8-7.8 20.4-7.8 28.2 0L698 604c7.8 7.8 7.8 20.4 0 28.2-4 4-9 5.8-14.2 5.8z" fill="#262435" p-id="1408"></path><path d="M512.4 638c-5.2 0-10.2-2-14.2-5.8-7.8-7.8-7.8-20.4 0-28.2l85.8-85.8c7.8-7.8 20.4-7.8 28.2 0 7.8 7.8 7.8 20.4 0 28.2l-85.8 85.8c-3.8 4-8.8 5.8-14 5.8z" fill="#262435" p-id="1409"></path></svg>