<?xml version="1.0" standalone="no"?><!DOCTYPE svg PUBLIC "-//W3C//DTD SVG 1.1//EN" "http://www.w3.org/Graphics/SVG/1.1/DTD/svg11.dtd"><svg t="1643531481997" class="icon" viewBox="0 0 1024 1024" version="1.1" xmlns="http://www.w3.org/2000/svg" p-id="4075" xmlns:xlink="http://www.w3.org/1999/xlink" width="200" height="200"><defs><style type="text/css"></style></defs><path d="M532.352 96c-138.688 0-260.992 88-312.32 218.304C111.808 337.344 32 437.248 32 554.688c0 135.168 105.152 245.312 235.648 245.312a32 32 0 1 0 0-64C173.184 736 96 655.168 96 554.688c0-92.608 65.92-169.664 151.68-180.16a32 32 0 0 0 26.496-21.632C312.32 238.08 415.424 160 532.352 160c145.6 0 265.92 120.32 273.152 273.472a32 32 0 0 0 23.68 29.44c57.472 15.296 98.816 70.336 98.816 134.4 0 76.928-58.944 138.688-130.88 138.688a32 32 0 1 0 0 64c107.968 0 194.88-91.072 194.88-202.688 0-84.672-50.432-159.104-124.288-188.928C848.768 232.32 705.6 96 532.352 96z m11.648 557.248V928a32 32 0 1 1-64 0v-274.752l-73.344 73.408a32 32 0 0 1-45.312-45.312l128-128a32 32 0 0 1 45.312 0l128 128a32 32 0 0 1-45.312 45.312L544 653.248z" fill="#5A5A5A" p-id="4076"></path></svg>