<?xml version="1.0" standalone="no"?><!DOCTYPE svg PUBLIC "-//W3C//DTD SVG 1.1//EN" "http://www.w3.org/Graphics/SVG/1.1/DTD/svg11.dtd"><svg t="1648739778049" class="icon" viewBox="0 0 1024 1024" version="1.1" xmlns="http://www.w3.org/2000/svg" p-id="2305" xmlns:xlink="http://www.w3.org/1999/xlink" width="200" height="200"><defs><style type="text/css">@font-face { font-family: feedback-iconfont; src: url("//at.alicdn.com/t/font_1031158_u69w8yhxdu.woff2?t=1630033759944") format("woff2"), url("//at.alicdn.com/t/font_1031158_u69w8yhxdu.woff?t=1630033759944") format("woff"), url("//at.alicdn.com/t/font_1031158_u69w8yhxdu.ttf?t=1630033759944") format("truetype"); }
</style></defs><path d="M192 384h640a42.666667 42.666667 0 0 1 42.666667 42.666667v362.666666a42.666667 42.666667 0 0 1-42.666667 42.666667H192v106.666667a21.333333 21.333333 0 0 0 21.333333 21.333333h725.333334a21.333333 21.333333 0 0 0 21.333333-21.333333V308.821333L949.909333 298.666667h-126.528A98.048 98.048 0 0 1 725.333333 200.618667V72.661333L716.714667 64H213.333333a21.333333 21.333333 0 0 0-21.333333 21.333333v298.666667zM128 832H42.666667a42.666667 42.666667 0 0 1-42.666667-42.666667V426.666667a42.666667 42.666667 0 0 1 42.666667-42.666667h85.333333V85.333333a85.333333 85.333333 0 0 1 85.333333-85.333333h530.026667L1024 282.453333V938.666667a85.333333 85.333333 0 0 1-85.333333 85.333333H213.333333a85.333333 85.333333 0 0 1-85.333333-85.333333v-106.666667zM84.224 472.490667V746.666667H125.226667v-188.928h1.408L200.234667 746.666667h35.413333l73.6-188.928h1.386667V746.666667h41.002666V472.490667h-48l-84.821333 215.04h-1.408l-85.162667-215.04H84.224z m316.48 0V746.666667h41.002667v-105.216h62.037333c60.970667 0 91.477333-28.416 91.477333-84.864 0-56.064-30.506667-84.096-90.773333-84.096h-103.744z m41.002667 38.4h59.584c17.877333 0 31.189333 3.456 39.594666 10.752 8.426667 6.912 12.970667 18.432 12.970667 34.944 0 16.512-4.202667 28.416-12.608 35.712-8.426667 6.912-21.738667 10.752-39.957333 10.752h-59.584v-92.16z m271.616-43.776c-24.533333 0-44.864 7.296-60.629334 22.656-16.832 15.36-25.941333 36.864-28.032 64.512h40.298667c1.408-16.512 6.314667-28.8 14.72-36.864 8.064-8.064 19.285333-11.904 34.005333-11.904 14.357333 0 25.216 3.456 32.576 10.368 6.677333 6.912 10.176 16.896 10.176 30.336 0 13.44-3.84 23.808-11.221333 30.72-7.701333 6.912-18.922667 10.368-33.642667 10.368h-17.514666v33.792h17.514666c16.128 0 28.373333 3.456 36.8 11.136 8.405333 7.296 12.970667 18.816 12.970667 34.56 0 13.056-4.202667 23.808-12.266667 32.64-9.109333 9.6-21.738667 14.592-37.504 14.592-14.378667 0-25.941333-4.608-34.688-13.44-9.813333-9.6-14.72-23.424-15.424-41.088H619.733333c2.090667 30.72 11.904 54.528 29.44 70.656 15.765333 14.592 36.8 21.888 62.72 21.888 27.349333 0 49.429333-8.448 66.24-24.96 16.128-16.128 24.192-36.864 24.192-62.208 0-16.128-4.202667-29.568-12.608-39.936-7.722667-9.984-19.285333-17.28-34.005333-22.272 27.690667-9.984 41.706667-29.952 41.706667-59.904 0-23.808-7.701333-42.24-22.784-55.68-15.424-13.44-36.096-19.968-61.333334-19.968z" fill="#409EFF" p-id="2306"></path></svg>