<?xml version="1.0" standalone="no"?><!DOCTYPE svg PUBLIC "-//W3C//DTD SVG 1.1//EN" "http://www.w3.org/Graphics/SVG/1.1/DTD/svg11.dtd"><svg t="1644924214159" class="icon" viewBox="0 0 1024 1024" version="1.1" xmlns="http://www.w3.org/2000/svg" p-id="5373" xmlns:xlink="http://www.w3.org/1999/xlink" width="200" height="200"><defs><style type="text/css"></style></defs><path d="M192 384h640a42.666667 42.666667 0 0 1 42.666667 42.666667v362.666666a42.666667 42.666667 0 0 1-42.666667 42.666667H192v106.666667a21.333333 21.333333 0 0 0 21.333333 21.333333h725.333334a21.333333 21.333333 0 0 0 21.333333-21.333333V308.821333L949.909333 298.666667h-126.528A98.048 98.048 0 0 1 725.333333 200.618667V72.661333L716.714667 64H213.333333a21.333333 21.333333 0 0 0-21.333333 21.333333v298.666667zM128 832H42.666667a42.666667 42.666667 0 0 1-42.666667-42.666667V426.666667a42.666667 42.666667 0 0 1 42.666667-42.666667h85.333333V85.333333a85.333333 85.333333 0 0 1 85.333333-85.333333h530.026667L1024 282.453333V938.666667a85.333333 85.333333 0 0 1-85.333333 85.333333H213.333333a85.333333 85.333333 0 0 1-85.333333-85.333333v-106.666667zM88.064 472.490667V746.666667h40.618667v-188.928h1.386666L202.944 746.666667h35.072l72.874667-188.928h1.386666V746.666667h40.618667V472.490667h-47.573333l-83.968 215.04h-1.408l-84.330667-215.04H88.064z m313.429333 0V746.666667h40.597334v-105.216h61.44c60.373333 0 90.581333-28.416 90.581333-84.864 0-56.064-30.186667-84.096-89.898667-84.096H401.493333z m40.597334 38.4h59.008c17.706667 0 30.890667 3.456 39.210666 10.752 8.32 6.912 12.842667 18.432 12.842667 34.944 0 16.512-4.16 28.416-12.48 35.712-8.32 6.912-21.525333 10.752-39.573333 10.752h-59.008v-92.16z m290.176-38.4l-121.152 172.8v42.624h119.744V746.666667h38.528v-58.752h36.8v-35.712h-36.8v-179.712h-37.12z m-2.432 56.832h1.024v122.88h-86.762667l85.738667-122.88z" fill="#3482F0" p-id="5374"></path></svg>