<?xml version="1.0" standalone="no"?><!DOCTYPE svg PUBLIC "-//W3C//DTD SVG 1.1//EN" "http://www.w3.org/Graphics/SVG/1.1/DTD/svg11.dtd"><svg t="1643538189126" class="icon" viewBox="0 0 1024 1024" version="1.1" xmlns="http://www.w3.org/2000/svg" p-id="9593" xmlns:xlink="http://www.w3.org/1999/xlink" width="200" height="200"><defs><style type="text/css"></style></defs><path d="M703.8 547.8h-167v-167c0-13.8-11.2-25-25-25s-25 11.2-25 25v167h-167c-13.8 0-25 11.2-25 25s11.2 25 25 25h167v167c0 13.8 11.2 25 25 25s25-11.2 25-25v-167h167c13.8 0 25-11.2 25-25s-11.2-25-25-25z" p-id="9594" fill="#2c2c2c"></path><path d="M833.3 234.1H530.8l-29.6-58.5c-10.4-20.6-26.4-37.9-46.1-50.1-19.7-12.1-42.3-18.5-65.5-18.5H188.7c-68.9 0-125 56.1-125 125v513.5c0 96.5 78.5 175 175 175h544.7c96.5 0 175-78.5 175-175V359.1c-0.1-68.9-56.1-125-125.1-125z m75 511.5c0 68.9-56.1 125-125 125H238.7c-68.9 0-125-56.1-125-125V232c0-41.4 33.6-75 75-75h200.9c28.4 0 54.1 15.8 66.9 41.1l36.6 72.2c4.3 8.4 12.9 13.7 22.3 13.7h317.9c41.4 0 75 33.6 75 75v386.6z" p-id="9595" fill="#2c2c2c"></path></svg>