<?xml version="1.0" standalone="no"?><!DOCTYPE svg PUBLIC "-//W3C//DTD SVG 1.1//EN" "http://www.w3.org/Graphics/SVG/1.1/DTD/svg11.dtd"><svg t="1645451280921" class="icon" viewBox="0 0 1024 1024" version="1.1" xmlns="http://www.w3.org/2000/svg" p-id="21851" xmlns:xlink="http://www.w3.org/1999/xlink" width="200" height="200"><defs><style type="text/css"></style></defs><path d="M347.71 758.72c-5.2 0-10.44-1.17-15.36-3.55-12.25-5.92-19.86-18.05-19.86-31.66V299.4c0-13.62 7.62-25.76 19.89-31.67 12.26-5.92 26.51-4.33 37.17 4.15L636.5 484.22c8.44 6.72 13.28 16.75 13.27 27.54-0.01 10.79-4.85 20.82-13.31 27.53L369.51 751.06c-6.38 5.06-14.04 7.66-21.8 7.66z m15.98-426.07v357.68l225.15-178.6-225.15-179.08z m0 0" p-id="21852" fill="#606266"></path><path d="M679.4 767.72c-17.67 0-32-14.33-32-32v-448c0-17.67 14.33-32 32-32s32 14.33 32 32v448c0 17.68-14.33 32-32 32z" p-id="21853" fill="#606266"></path></svg>