<?xml version="1.0" standalone="no"?><!DOCTYPE svg PUBLIC "-//W3C//DTD SVG 1.1//EN" "http://www.w3.org/Graphics/SVG/1.1/DTD/svg11.dtd"><svg t="1648624380761" class="icon" viewBox="0 0 1024 1024" version="1.1" xmlns="http://www.w3.org/2000/svg" p-id="8250" xmlns:xlink="http://www.w3.org/1999/xlink" width="200" height="200"><defs><style type="text/css">@font-face { font-family: feedback-iconfont; src: url("//at.alicdn.com/t/font_1031158_u69w8yhxdu.woff2?t=1630033759944") format("woff2"), url("//at.alicdn.com/t/font_1031158_u69w8yhxdu.woff?t=1630033759944") format("woff"), url("//at.alicdn.com/t/font_1031158_u69w8yhxdu.ttf?t=1630033759944") format("truetype"); }
</style></defs><path d="M1008 464h-72c-4.4 0-8-3.6-8-8V314.5c0-17-6.7-33.3-18.8-45.3L658.8 18.8C646.7 6.7 630.5 0 613.5 0H144c-26.5 0-48 21.5-48 48v408c0 4.4-3.6 8-8 8H16c-8.8 0-16 7.2-16 16v400c0 8.8 7.2 16 16 16h80c0 35.3 14.3 67.3 37.5 90.5 23.2 23.2 55.2 37.5 90.5 37.5h656c26.5 0 48-21.5 48-48v-64c0-8.8 7.2-16 16-16h64c8.8 0 16-7.2 16-16V480c0-8.8-7.2-16-16-16zM704 154.5l69.5 69.5H708c-2.2 0-4-1.8-4-4v-65.5zM864 952c0 4.4-3.6 8-8 8H224c-35.3 0-64-28.7-64-64h696c4.4 0 8 3.6 8 8v48zM242.2 784.4V575.7H314c51.9 0 77.9 22 77.9 66 0 21.4-7.8 38.5-23.5 51.4-15.7 12.9-35.3 19.1-58.8 18.5h-22.9v72.8h-44.5z m195.3 0V575.7h72.1c74.1 0 111.1 33.9 111.1 101.7 0 32.2-10.4 58.1-31.1 77.7-20.7 19.5-47.5 29.3-80.3 29.3h-71.8z m340.4-118.7v36.4h-68.6v82.3h-44.5V575.7h119v36.4h-74.5v53.6h68.6zM864 456c0 4.4-3.6 8-8 8H168c-4.4 0-8-3.6-8-8V72c0-4.4 3.6-8 8-8h408c35.3 0 64 28.6 64 64v144c0 8.8 7.2 16 16 16h144c35.3 0 64 28.6 64 64v104z" p-id="8251" fill="#409EFF"></path><path d="M345.1 643.5c0 22.7-13.1 34.1-39.2 34.1h-19.3v-67.4h19.7c25.9 0 38.8 11.1 38.8 33.3zM574 678.1c0 21.5-6 38.5-18 51.1-12 12.6-28.6 18.9-49.7 18.9H482v-136h24.1c20.1 0 36.5 5.8 49 17.4 12.6 11.6 18.9 27.8 18.9 48.6z" p-id="8252" fill="#409EFF"></path></svg>