<?xml version="1.0" standalone="no"?><!DOCTYPE svg PUBLIC "-//W3C//DTD SVG 1.1//EN" "http://www.w3.org/Graphics/SVG/1.1/DTD/svg11.dtd"><svg t="1643538567294" class="icon" viewBox="0 0 1024 1024" version="1.1" xmlns="http://www.w3.org/2000/svg" p-id="15025" xmlns:xlink="http://www.w3.org/1999/xlink" width="200" height="200"><defs><style type="text/css"></style></defs><path d="M835.955206 889.082194 183.583179 889.082194c-65.937758 0-119.601982-53.6632-119.601982-119.601982L63.981197 247.582795c0-65.937758 53.6632-119.601982 119.601982-119.601982l652.372028 0c65.937758 0 119.601982 53.6632 119.601982 119.601982l0 521.897418C955.557188 835.418994 901.892965 889.082194 835.955206 889.082194zM183.583179 193.21863c-29.984918 0-54.364165 24.379247-54.364165 54.364165l0 521.897418c0 29.984918 24.379247 54.364165 54.364165 54.364165l652.372028 0c29.984918 0 54.364165-24.379247 54.364165-54.364165L890.319371 247.582795c0-29.984918-24.379247-54.364165-54.364165-54.364165L183.583179 193.21863z" p-id="15026" fill="#515151"></path><path d="M477.29457 767.588119c-8.346085 0-16.691147-3.185552-23.062252-9.556657L346.81996 650.619104l-99.236142 99.257631c-12.741185 12.741185-33.383318 12.741185-46.124504 0-12.741185-12.741185-12.741185-33.383318 0-46.124504L323.757708 581.432349c12.231579-12.231579 33.892925-12.231579 46.124504 0L500.356822 711.906959c12.741185 12.741185 12.741185 33.383318 0 46.124504C493.985718 764.402567 485.640656 767.588119 477.29457 767.588119z" p-id="15027" fill="#515151"></path><path d="M798.890033 717.834972c-8.346085 0-16.691147-3.185552-23.062252-9.556657l-184.583972-184.583972-84.60491 84.60491c-12.741185 12.741185-33.383318 12.741185-46.124504 0-12.741185-12.741185-12.741185-33.383318 0-46.124504l107.667162-107.667162c12.741185-12.741185 33.383318-12.741185 46.124504 0L821.953308 662.153812c12.741185 12.741185 12.741185 33.383318 0 46.124504C815.582203 714.64942 807.236118 717.834972 798.890033 717.834972z" p-id="15028" fill="#515151"></path><path d="M375.46537 465.040479c-65.937758 0-119.601982-53.6632-119.601982-119.601982s53.6632-119.601982 119.601982-119.601982 119.601982 53.6632 119.601982 119.601982S441.403129 465.040479 375.46537 465.040479zM375.46537 291.074332c-29.984918 0-54.364165 24.379247-54.364165 54.364165 0 29.984918 24.379247 54.364165 54.364165 54.364165s54.364165-24.379247 54.364165-54.364165C429.829536 315.453578 405.450289 291.074332 375.46537 291.074332z" p-id="15029" fill="#515151"></path></svg>