<?xml version="1.0" standalone="no"?><!DOCTYPE svg PUBLIC "-//W3C//DTD SVG 1.1//EN" "http://www.w3.org/Graphics/SVG/1.1/DTD/svg11.dtd"><svg t="1644923248495" class="icon" viewBox="0 0 1024 1024" version="1.1" xmlns="http://www.w3.org/2000/svg" p-id="3975" xmlns:xlink="http://www.w3.org/1999/xlink" width="200" height="200"><defs><style type="text/css"></style></defs><path d="M899.072 403.968h-14.336V275.456c0-8.192-3.072-16.384-9.216-22.016L624.128 11.776c-6.144-5.632-13.312-8.704-21.504-8.704h-465.92C89.088 3.072 50.688 41.472 50.688 89.088v845.824c0 47.616 38.4 86.016 86.016 86.016h662.528c22.528 0 45.056-9.216 60.928-25.6 16.384-16.384 25.088-37.888 24.576-60.416v-60.416h14.848c22.528 0 43.52-8.704 59.392-25.088 15.872-15.872 24.576-36.864 24.064-58.88V487.936c0-46.08-37.888-83.968-83.968-83.968z m-292.864-324.096l185.856 178.176-185.856-4.608V79.872z m217.088 855.04c0.512 6.656-2.048 12.8-6.656 17.408-4.608 4.608-10.752 7.168-17.408 7.168H136.704c-13.312 0-24.576-11.264-24.576-24.576V89.088c0-13.312 11.264-24.576 24.576-24.576h408.064v219.136c0 16.896 12.8 30.208 29.696 30.72l248.832 6.144v83.456h-527.36c-46.08 0-83.968 37.888-83.968 83.968v302.592c0 46.08 37.888 83.968 83.968 83.968h527.36v60.416z m98.304-144.384c0 6.144-2.048 11.776-6.144 15.872s-9.728 6.656-15.872 6.656H295.936c-12.288 0-22.528-10.24-22.528-22.528V487.936c0-12.288 10.24-22.528 22.528-22.528h603.136c12.288 0 22.528 10.24 22.528 22.528v302.592z" fill="#409EFF" p-id="3976"></path><path d="M309.76 600.064h59.392v132.608h58.88v-132.608h59.904v-43.52H309.76zM696.832 556.544h-64l-32.768 54.272-33.792-54.272H501.76l59.392 83.968L495.616 732.16h66.048l37.376-56.32 37.376 56.32h66.048l-64.512-90.624zM707.072 556.544v43.52h59.904v132.608h58.88v-132.608H885.76v-43.52h-178.176z" fill="#409EFF" p-id="3977"></path></svg>